HIERARCHY
ROOT Hips
{
	OFFSET 0.000000 0.000000 0.000000 
	CHANNELS 6 Xposition Yposition Zposition Zrotation Yrotation Xrotation
	JOINT LeftUpLeg
	{
		OFFSET 1.363060 -1.794630 0.839290 
		CHANNELS 3 Zrotation Yrotation Xrotation
		JOINT LeftLeg
		{
			OFFSET 2.448110 -6.726130 0.000000 
			CHANNELS 3 Zrotation Yrotation Xrotation
			JOINT LeftFoot
			{
				OFFSET 2.562200 -7.039590 0.000000 
				CHANNELS 3 Zrotation Yrotation Xrotation
				JOINT LeftToeBase
				{
					OFFSET 0.157640 -0.433110 2.322550 
					CHANNELS 3 Zrotation Yrotation Xrotation
					End Site
					{
						OFFSET 0.000000 0.000000 0.000000 
					}
				}
			}
		}
	}
	JOINT RightUpLeg
	{
		OFFSET -1.305520 -1.794630 0.839290 
		CHANNELS 3 Zrotation Yrotation Xrotation
		JOINT RightLeg
		{
			OFFSET -2.542530 -6.985550 0.000000 
			CHANNELS 3 Zrotation Yrotation Xrotation
			JOINT RightFoot
			{
				OFFSET -2.568260 -7.056230 0.000000 
				CHANNELS 3 Zrotation Yrotation Xrotation
				JOINT RightToeBase
				{
					OFFSET -0.164730 -0.452590 2.363150 
					CHANNELS 3 Zrotation Yrotation Xrotation
					End Site
					{
						OFFSET 0.000000 0.000000 0.000000 
					}
				}
			}
		}
	}
	JOINT Spine
	{
		OFFSET 0.028270 2.035590 -0.193380 
		CHANNELS 3 Zrotation Yrotation Xrotation
		JOINT Spine1
		{
			OFFSET 0.056720 2.048850 -0.042750 
			CHANNELS 3 Zrotation Yrotation Xrotation
			JOINT Neck1
			{
				OFFSET -0.054170 1.746240 0.172020 
				CHANNELS 3 Zrotation Yrotation Xrotation
				JOINT Head
				{
					OFFSET 0.104070 1.761360 -0.123970 
					CHANNELS 3 Zrotation Yrotation Xrotation
					End Site
					{
						OFFSET 0.000000 0.000000 0.000000 
					}
				}
			}
			JOINT LeftArm
			{
				OFFSET 3.362410 1.200890 -0.311210 
				CHANNELS 3 Zrotation Yrotation Xrotation
				JOINT LeftForeArm
				{
					OFFSET 4.983000 -0.000000 -0.000000 
					CHANNELS 3 Zrotation Yrotation Xrotation
					JOINT LeftHand
					{
						OFFSET 3.483560 -0.000000 -0.000000 
						CHANNELS 3 Zrotation Yrotation Xrotation
						JOINT LeftHandIndex1
						{
							OFFSET 0.715260 -0.000000 -0.000000 
							CHANNELS 3 Zrotation Yrotation Xrotation
							End Site
							{
								OFFSET 0.000000 0.000000 0.000000 
							}
						}
					}
				}
			}
			JOINT RightArm
			{
				OFFSET -3.136600 1.374050 -0.404650 
				CHANNELS 3 Zrotation Yrotation Xrotation
				JOINT RightForeArm
				{
					OFFSET -5.241900 -0.000000 -0.000000 
					CHANNELS 3 Zrotation Yrotation Xrotation
					JOINT RightHand
					{
						OFFSET -3.444170 -0.000000 -0.000000 
						CHANNELS 3 Zrotation Yrotation Xrotation
						JOINT RightHandIndex1
						{
							OFFSET -0.622530 -0.000000 -0.000000 
							CHANNELS 3 Zrotation Yrotation Xrotation
							End Site
							{
								OFFSET 0.000000 0.000000 0.000000 
							}
						}
					}
				}
			}
		}
	}
}
MOTION
Frames: 9
Frame Time: 0.041667
0.413402 17.616446 -3.239991 -1.593472 -0.062834 7.272047 -13.881171 0.128524 -24.549329 1.483753 10.357878 28.862570 -0.818472 5.490159 -2.132744 0.001300 0.232500 0.638800 17.250915 6.856117 -22.987465 -2.261821 -11.190237 31.673586 -0.865770 3.279163 -5.352074 -0.416400 -4.142100 11.476800 1.116785 1.385536 -1.502342 0.616438 0.406958 6.538065 4.729705 -3.208082 34.921951 1.156000 -0.765600 13.605800 -97.832241 -2.332603 30.000162 6.045644 -14.326098 -0.617507 -0.250306 -0.755914 -7.262869 -7.125000 0.000000 0.000000 93.623045 10.515938 3.930835 -7.567546 17.519791 -1.320097 0.968880 0.748916 40.322618 7.125000 0.000000 0.000000 
0.419596 17.631272 -3.221204 -1.614338 -0.102743 7.372794 -13.880878 0.180128 -24.450964 1.423836 10.259905 28.560453 -0.818326 5.489412 -2.085469 0.000500 0.140800 0.386900 17.249953 6.862176 -22.854275 -2.195029 -11.087414 31.350723 -0.855380 3.230102 -5.240886 -0.424200 -4.180400 11.584600 1.118333 1.403400 -1.512833 0.625099 0.415911 6.529593 4.746352 -3.209686 34.857790 1.163000 -0.767300 13.572300 -97.837670 -2.408996 30.360972 6.212080 -14.636293 -0.666019 -0.238266 -0.759199 -7.992040 -7.125000 0.000000 0.000000 93.595088 10.578124 4.452943 -7.717893 17.778480 -1.372425 0.959970 0.758652 39.536537 7.125000 0.000000 0.000000 
0.425791 17.646098 -3.202012 -1.640276 -0.143369 7.472408 -13.875486 0.244706 -24.353214 1.364649 10.161493 28.258967 -0.814863 5.474344 -2.042266 0.000100 0.055500 0.152400 17.256002 6.853048 -22.722522 -2.128021 -10.982711 31.023943 -0.847288 3.197591 -5.121714 -0.431800 -4.217200 11.688500 1.120210 1.418885 -1.523973 0.630776 0.424245 6.522717 4.765580 -3.211219 34.793476 1.171900 -0.769100 13.540000 -97.845061 -2.473634 30.715500 6.378486 -14.944891 -0.716915 -0.224383 -0.762565 -8.692387 -7.125000 0.000000 0.000000 93.573879 10.634591 4.978882 -7.863435 18.028341 -1.423671 0.951897 0.766721 38.809634 7.125000 0.000000 0.000000 
0.431681 17.660822 -3.182921 -1.671900 -0.183133 7.569510 -13.864331 0.322816 -24.257511 1.306387 10.063054 27.959055 -0.808358 5.445607 -1.998057 0.000000 -0.022300 -0.061300 17.269606 6.831193 -22.590475 -2.061015 -10.876636 30.694548 -0.841364 3.180518 -4.995817 -0.440400 -4.258100 11.804000 1.122257 1.431007 -1.535086 0.631082 0.431307 6.520067 4.776260 -3.210036 34.736704 1.176300 -0.769600 13.514300 -97.851431 -2.530289 31.065661 6.544872 -15.252032 -0.770530 -0.207907 -0.765958 -9.361644 -7.125000 0.000000 0.000000 93.562476 10.690979 5.507211 -8.003157 18.267438 -1.473275 0.944779 0.773516 38.140268 7.125000 0.000000 0.000000 
0.437570 17.675343 -3.163423 -1.705368 -0.224181 7.662714 -13.852618 0.414481 -24.161229 1.249250 9.965081 27.662258 -0.799709 5.407293 -1.951556 0.000200 -0.089700 -0.246500 17.286295 6.796109 -22.457396 -1.994527 -10.769789 30.364609 -0.837763 3.180179 -4.864492 -0.448600 -4.296900 11.913500 1.123854 1.440047 -1.545402 0.625091 0.437416 6.525255 4.779106 -3.206298 34.689743 1.176600 -0.768700 13.494700 -97.854124 -2.577855 31.423277 6.706861 -15.549391 -0.823416 -0.192499 -0.768947 -9.981275 -7.125000 0.000000 0.000000 93.562715 10.751404 6.013122 -8.131264 18.486259 -1.519033 0.938845 0.778751 37.553043 7.125000 0.000000 0.000000 
0.443257 17.689459 -3.143825 -1.742113 -0.268645 7.752024 -13.838332 0.518682 -24.066717 1.193645 9.867811 27.369406 -0.789883 5.363591 -1.896300 0.000500 -0.144500 -0.396900 17.307853 6.756273 -22.323174 -1.928818 -10.662840 30.036323 -0.835527 3.189052 -4.729191 -0.456700 -4.335200 12.021600 1.125174 1.446350 -1.556466 0.614857 0.442476 6.530208 4.776969 -3.197275 34.655572 1.174900 -0.765000 13.482100 -97.850599 -2.618926 31.799282 6.868393 -15.844760 -0.876688 -0.176272 -0.772138 -10.570394 -7.125000 0.000000 0.000000 93.575210 10.822439 6.474430 -8.238622 18.668475 -1.557559 0.934085 0.782444 37.073242 7.125000 0.000000 0.000000 
0.448741 17.703269 -3.124327 -1.780380 -0.316059 7.836422 -13.822881 0.632003 -23.972804 1.139587 9.771693 27.081202 -0.779680 5.318519 -1.830676 0.000800 -0.182100 -0.500400 17.332397 6.713651 -22.188354 -1.864577 -10.556841 29.712105 -0.834079 3.203622 -4.592484 -0.464400 -4.371200 12.123400 1.126413 1.449240 -1.567760 0.602126 0.445958 6.535928 4.766988 -3.180583 34.634786 1.170200 -0.757900 13.476000 -97.842216 -2.655023 32.188821 7.025898 -16.131903 -0.929678 -0.157959 -0.775652 -11.104431 -7.125000 0.000000 0.000000 93.599689 10.902802 6.901772 -8.330431 18.823201 -1.590540 0.929980 0.785373 36.684281 7.125000 0.000000 0.000000 
0.453818 17.716572 -3.104932 -1.813700 -0.363290 7.915892 -13.812939 0.748118 -23.878680 1.087299 9.677384 26.799266 -0.770308 5.276487 -1.754740 0.001000 -0.206000 -0.566000 17.352347 6.668120 -22.053247 -1.802357 -10.452396 29.394490 -0.833373 3.222470 -4.456765 -0.473000 -4.411100 12.236100 1.127522 1.445454 -1.579646 0.591128 0.445841 6.539918 4.752909 -3.155164 34.623343 1.165500 -0.747500 13.472600 -97.833632 -2.690691 32.570115 7.174036 -16.400464 -0.978854 -0.142104 -0.778684 -11.566564 -7.125000 0.000000 0.000000 93.634548 10.995591 7.279564 -8.402671 18.943784 -1.616588 0.926731 0.786645 36.406447 7.125000 0.000000 0.000000 
0.458692 17.729367 -3.085841 -1.842438 -0.409392 7.989722 -13.807155 0.862095 -23.782602 1.036834 9.584788 26.523520 -0.762002 5.239937 -1.668056 0.001100 -0.209700 -0.576100 17.368376 6.622219 -21.918007 -1.742491 -10.350460 29.086251 -0.832779 3.239749 -4.325910 -0.481300 -4.449000 12.343300 1.128949 1.434662 -1.591945 0.583257 0.441664 6.541129 4.736782 -3.123129 34.621643 1.162000 -0.734900 13.473700 -97.827008 -2.736814 32.929848 7.294816 -16.616726 -1.017765 -0.132168 -0.780532 -11.911348 -7.125000 0.000000 0.000000 93.676613 11.093529 7.638203 -8.463434 19.044056 -1.638608 0.923591 0.787321 36.195539 7.125000 0.000000 0.000000 
